#!OML:ASF E:\Mandelcareful walks\Project 1\Capture day 1\Session 1\Subject1.ASF
:FULLY-SPECIFIED
:DEGREES
224
root 6.28879 15.4271 1.07548 -153.695 -85.8832 158.402
lowerback 23.1504 1.24839 -2.27675
upperback 7.3337 0.350397 -2.31648
thorax -4.86498 -0.0700742 -1.27279
lowerneck -23.8038 -12.1566 -14.1397
upperneck 18.7952 -17.3704 19.2073
head 13.4676 -6.70795 6.22065
rclavicle -1.51076e-014 7.55382e-015
rhumerus 37.528 33.7834 -55.3875
rradius 123.476
rwrist -64.7598
rhand 1.72285 -21.6695
rfingers 7.12502
rthumb 27.2395 -49.7226
lclavicle -1.51076e-014 7.55382e-015
lhumerus -15.8458 -12.8632 80.4625
lradius 57.9758
lwrist 24.6024
lhand -25.3401 -11.3352
lfingers 7.12502
lthumb 1.18313 18.6413
rfemur -25.3522 -11.7901 2.70402
rtibia 49.2147
rfoot -20.4604 -6.65034
rtoes -14.7635
lfemur -33.8005 13.205 -11.9055
ltibia 60.0511
lfoot -23.9751 0.998189
ltoes -5.62488
225
root 6.30557 15.4227 1.08491 -159.377 -85.3598 164.086
lowerback 23.3834 1.27927 -2.10544
upperback 7.32592 0.402114 -2.40747
thorax -4.98819 -0.0475842 -1.48589
lowerneck -24.0762 -12.8525 -14.0379
upperneck 18.8589 -18.4498 19.2985
head 13.7685 -7.14188 5.95939
rclavicle 1.74931e-014 6.40087e-014
rhumerus 37.1527 32.7151 -55.3973
rradius 123.691
rwrist -64.8656
rhand 1.50062 -21.6383
rfingers 7.12502
rthumb 27.0269 -49.7245
lclavicle 1.74931e-014 6.40087e-014
lhumerus -15.7711 -13.0843 80.21
lradius 57.6098
lwrist 24.8435
lhand -25.395 -10.7543
lfingers 7.12502
lthumb 1.13011 19.2225
rfemur -25.7065 -11.4334 3.01868
rtibia 49.251
rfoot -20.3308 -6.50871
rtoes -15.4797
lfemur -33.7222 13.4414 -11.6101
ltibia 60.1509
lfoot -24.0559 1.37275
ltoes -6.13167
226
root 6.30728 15.4214 1.10317 -161.558 -84.5369 166.441
lowerback 23.1505 1.04811 -2.67528
upperback 7.24711 0.0137318 -2.10601
thorax -4.96229 -0.2365 -0.728181
lowerneck -24.0263 -13.0428 -15.0515
upperneck 18.7988 -18.4018 19.5015
head 13.863 -7.17464 6.22018
rclavicle -8.34896e-015 1.59028e-014
rhumerus 37.9296 32.8876 -54.6269
rradius 123.766
rwrist -65.1346
rhand 1.22643 -21.4246
rfingers 7.12502
rthumb 26.7645 -49.5512
lclavicle -8.34896e-015 1.59028e-014
lhumerus -16.3412 -11.5418 80.4985
lradius 57.3838
lwrist 24.7377
lhand -25.2439 -10.262
lfingers 7.12502
lthumb 1.276 19.714
rfemur -26.2622 -11.2047 3.00126
rtibia 49.23
rfoot -20.1216 -6.07997
rtoes -15.8877
lfemur -33.753 13.7449 -11.6935
ltibia 60.2785
lfoot -24.2051 1.90431
ltoes -6.54977
227
root 6.30267 15.4249 1.12053 -162.768 -83.7211 167.741
lowerback 22.855 0.935228 -3.10841
upperback 7.25639 -0.204082 -1.96223
thorax -4.7999 -0.346537 -0.266883
lowerneck -23.7636 -13.1281 -15.534
upperneck 18.4243 -18.3621 19.6959
head 13.7302 -7.19979 6.37971
rclavicle -1.55052e-014 -1.59028e-015
rhumerus 38.1871 32.6412 -54.3759
rradius 123.894
rwrist -65.1043
rhand 1.13658 -21.5148
rfingers 7.12502
rthumb 26.6786 -49.6546
lclavicle -1.55052e-014 -1.59028e-015
lhumerus -16.5966 -10.7741 80.568
lradius 57.1035
lwrist 24.516
lhand -24.9298 -10.0202
lfingers 7.12502
lthumb 1.57937 19.9537
rfemur -26.6206 -11.0061 2.91343
rtibia 49.1302
rfoot -19.9789 -5.52095
rtoes -15.3791
lfemur -33.652 14.0205 -11.7969
ltibia 60.3737
lfoot -24.419 2.33201
ltoes -6.53125
228
root 6.29462 15.432 1.13621 -163.978 -82.9494 168.935
lowerback 22.6554 0.79859 -3.49307
upperback 7.30638 -0.452639 -1.86375
thorax -4.63658 -0.474984 0.123298
lowerneck -24.0373 -13.1798 -15.5
upperneck 18.4431 -18.3617 19.5406
head 13.7629 -7.19493 6.30256
rclavicle 1.07344e-014 7.55382e-015
rhumerus 38.2359 32.3913 -54.4603
rradius 124.081
rwrist -64.7699
rhand 1.44983 -21.6046
rfingers 7.12502
rthumb 26.9783 -49.6984
lclavicle 1.07344e-014 7.55382e-015
lhumerus -16.7474 -10.1242 80.4919
lradius 56.8029
lwrist 24.3234
lhand -24.8062 -10.23
lfingers 7.12502
lthumb 1.69878 19.743
rfemur -26.7648 -10.751 2.84665
rtibia 48.9445
rfoot -19.89 -5.0086
rtoes -14.6466
lfemur -33.349 14.2953 -11.8254
ltibia 60.4091
lfoot -24.7081 2.64297
ltoes -6.33351
229
root 6.29098 15.4354 1.15107 -165.168 -82.2098 169.98
lowerback 22.8093 0.637574 -3.85637
upperback 7.21578 -0.742712 -1.73756
thorax -4.7984 -0.615359 0.542763
lowerneck -23.9381 -13.1278 -15.718
upperneck 18.4735 -18.2529 19.6088
head 13.7666 -7.16357 6.39922
rclavicle -3.33958e-014 -1.27222e-014
rhumerus 38.0379 32.427 -54.6566
rradius 124.373
rwrist -64.4919
rhand 1.72831 -21.5076
rfingers 7.12502
rthumb 27.2447 -49.5599
lclavicle -3.33958e-014 -1.27222e-014
lhumerus -17.2721 -9.38583 80.5357
lradius 56.6525
lwrist 24.1123
lhand -24.907 -10.6426
lfingers 7.12502
lthumb 1.60137 19.3311
rfemur -26.8285 -10.4006 2.78157
rtibia 48.7816
rfoot -19.7396 -4.58902
rtoes -14.2125
lfemur -32.9299 14.5649 -11.805
ltibia 60.4298
lfoot -24.9686 2.9455
ltoes -6.26471
230
root 6.2924 15.4359 1.16387 -167.941 -81.4496 172.421
lowerback 23.3012 0.582022 -3.87544
upperback 7.12049 -0.847719 -1.63048
thorax -5.145 -0.662941 0.701975
lowerneck -23.4797 -13.0655 -15.9814
upperneck 18.3046 -18.2015 19.8975
head 13.6695 -7.16878 6.58046
rclavicle 4.37326e-015 1.27222e-014
rhumerus 37.5578 32.2217 -54.9995
rradius 124.681
rwrist -64.3691
rhand 1.62121 -21.4678
rfingers 7.12502
rthumb 27.1423 -49.5361
lclavicle 4.37326e-015 1.27222e-014
lhumerus -17.8022 -9.01317 80.6027
lradius 56.6926
lwrist 23.7644
lhand -24.9167 -10.5254
lfingers 7.12502
lthumb 1.59198 19.4484
rfemur -26.7654 -9.78391 2.96949
rtibia 48.641
rfoot -19.561 -4.29955
rtoes -13.9434
lfemur -32.3289 14.8838 -11.4625
ltibia 60.4376
lfoot -25.1775 3.24538
ltoes -6.35589
